<svg xmlns="http://www.w3.org/2000/svg" viewBox="0 0 517.76 472.45"><defs><style>.cls-1{fill:#fff;}.cls-2{fill:#215de4;}</style></defs><title>Asset 2</title><g id="Layer_2" data-name="Layer 2"><g id="Layer_1-2" data-name="Layer 1"><path class="cls-1" d="M49.5,471.19H35.91a54.62,54.62,0,0,1-3.06-13.86c-.81-6.66-3.33-10.71-8.37-11.07-1.71-.09-3.24-.09-4.86-.09h-7.2v25H0v-62.1H22.68a70,70,0,0,1,9,.45C40.68,410.62,48,415.3,48,426c0,8-4.77,13.05-12.15,15.12,6.12,2.34,8.46,7.47,9.18,14.4C45.81,463.09,47,467.68,49.5,471.19ZM21,436.9c2.16,0,3.69,0,5-.09,4.95-.45,8.91-2.88,8.91-8.91s-3.33-8.19-8.19-8.82a40.6,40.6,0,0,0-5.22-.27H12.42V436.9Z"/><path class="cls-1" d="M83.43,464.17l-2.34,5.13c-3.33,2.25-7.38,3.15-11.88,3.15-8.28,0-15.39-4.86-15.39-13.95,0-10.53,9-16.47,26.37-16.47h3.06v-1a39.15,39.15,0,0,0-.18-4.5c-.36-3.33-2.52-5.76-7.38-5.76s-7.65,2.88-8,8.1L55.62,439c.36-10.8,9.09-16.92,20.52-16.92,13.41,0,18.45,5.85,19.17,14.13.18,2.25.27,4.77.27,7.38V459a82.75,82.75,0,0,0,.9,12.15H84.33Zm-.18-10.62v-3.87c-9.9-.72-16.56,1.53-16.56,7.83,0,4.23,2.88,6.21,7.29,6.21C79,463.72,83.25,460.21,83.25,453.55Z"/><path class="cls-1" d="M153.63,471.19H141.21v-7.38l-3.6,5.31c-2.7,2.07-7.56,3.33-12.42,3.33-13.41,0-21.33-10.17-21.33-24.3,0-17.37,10.62-26.1,23-26.1,4,0,8.82,1,11.25,2.7l3.15,4.95V405h12.42Zm-12.42-23.4v-2.34c0-10.8-6.21-14.67-12-14.67-7.2,0-12.51,5.49-12.51,16.56,0,9.81,4.68,16.38,12.06,16.38C135.63,463.72,141.21,459.49,141.21,447.79Z"/><path class="cls-1" d="M178.2,412.06c0,4-2.79,6.57-6.84,6.57s-6.84-2.61-6.84-6.57,2.79-6.57,6.84-6.57S178.2,408.19,178.2,412.06Zm-13,59.13V423.31h12.42v47.88Z"/><path class="cls-1" d="M216,464.17l-2.34,5.13c-3.33,2.25-7.38,3.15-11.88,3.15-8.28,0-15.39-4.86-15.39-13.95,0-10.53,9-16.47,26.37-16.47h3.06v-1a39.15,39.15,0,0,0-.18-4.5c-.36-3.33-2.52-5.76-7.38-5.76s-7.65,2.88-8,8.1l-12.06.09c.36-10.8,9.09-16.92,20.52-16.92,13.41,0,18.45,5.85,19.17,14.13.17,2.25.27,4.77.27,7.38V459a84,84,0,0,0,.89,12.15H216.9Zm-.18-10.62v-3.87c-9.9-.72-16.56,1.53-16.56,7.83,0,4.23,2.88,6.21,7.29,6.21C211.59,463.72,215.82,460.21,215.82,453.55Z"/><path class="cls-1" d="M284.67,444.19v27H272.25V445.9c0-2,0-4.23-.18-6.66-.36-5-3.15-8.46-9.18-8.46s-10.8,5.22-10.8,18.54v21.87H239.67V423.31h12.42v7.74l3.69-5.67c3.42-2.43,6.93-3.33,11.52-3.33,10.16,0,16,5,17,13.41A73.64,73.64,0,0,1,284.67,444.19Z"/><path class="cls-1" d="M310.41,454c0,1.62,0,3,.09,4.23.35,4.68,2.06,5.76,9,5.22v8.1a50.13,50.13,0,0,1-8.19.63c-9.26,0-12.59-3.06-13.13-9.81-.18-2.16-.18-4.23-.18-6.93V431.86h-7v-8.19h7V411.88h12.42v11.79h9.89v8.19h-9.89Z"/><path class="cls-1" d="M391.13,471.19h-5.58V437.71c0-7.83,0-16.47.18-23.67-2.43,7.2-5.58,15.93-8.46,23.58l-12.6,33.57h-7L345,437.53c-2.79-7.56-5.94-16.29-8.28-23.4.18,7.2.18,15.84.18,23.58v33.48h-5.58v-62.1h9.09l21,57.42,20.88-57.42h8.91Z"/><path class="cls-1" d="M442.7,449.05H406.61c.63,14,7.74,19,15.48,19,6.66,0,12.6-4.05,14.31-11.88h5.85c-2.25,11.07-11,16.29-20.52,16.29-11.88,0-21.15-8.28-21.15-25,0-15.3,9.54-25.11,22.05-25.11,13.32,0,20.25,10.62,20.25,23.76A21.65,21.65,0,0,1,442.7,449.05Zm-36.09-4.41h30.6c-.63-12.24-6.75-17.82-14.76-17.82C414.62,426.82,407.42,432.76,406.61,444.64Z"/><path class="cls-1" d="M491.21,449.05H455.12c.63,14,7.74,19,15.48,19,6.66,0,12.6-4.05,14.31-11.88h5.85c-2.25,11.07-11,16.29-20.52,16.29-11.88,0-21.15-8.28-21.15-25,0-15.3,9.54-25.11,22.05-25.11,13.32,0,20.25,10.62,20.25,23.76A21.65,21.65,0,0,1,491.21,449.05Zm-36.09-4.41h30.6c-.63-12.24-6.75-17.82-14.76-17.82C463.13,426.82,455.93,432.76,455.12,444.64Z"/><path class="cls-1" d="M508.67,458.14c0,2,0,3,.09,4.23.36,4.59,2.34,5.76,8.73,4.95v4.14a31.07,31.07,0,0,1-5.76.45c-5.31,0-8.1-2.34-8.55-7.56-.09-1.62-.09-3.42-.09-6.12v-30H497v-4.32h6.12V413.41h5.58v10.53h9.09v4.32h-9.09Z"/><path class="cls-2" d="M445.11,0H72.78a54,54,0,0,0-54,54V238.24a54,54,0,0,0,54,54H286.69l93.77,60s19.29,8,22.11-9.88V292.24h42.54a54,54,0,0,0,54-54V54A54,54,0,0,0,445.11,0Z"/><ellipse class="cls-1" cx="268.75" cy="58.44" rx="30.44" ry="32.38"/><ellipse class="cls-1" cx="181.1" cy="58.18" rx="21.13" ry="21.87"/><ellipse class="cls-1" cx="354.75" cy="58.18" rx="21.13" ry="21.87"/><path class="cls-1" d="M145.46,115.41a3.16,3.16,0,1,1,6.31,0V168.8h43.67V124.55c0-16.5,12.88-30,28.62-30h5.07a19.86,19.86,0,0,0-17.12-10H149.56a20.13,20.13,0,0,0-19.87,20.26v64h15.77Z"/><path class="cls-1" d="M385.66,84.54H323.21a19.85,19.85,0,0,0-17.11,10H314c15.74,0,28.63,13.5,28.63,30V168.8h42.07V115.41a3.15,3.15,0,1,1,6.3,0V168.8h14.51v-64A20.13,20.13,0,0,0,385.66,84.54Z"/><path class="cls-1" d="M389.73,175h-52.8V124.45a26.61,26.61,0,0,0-26.4-26.66h-83a26.61,26.61,0,0,0-26.4,26.66V175H145.5a15.85,15.85,0,0,0-15.81,15.81v56.66A15.86,15.86,0,0,0,145.5,263.3H389.73a15.86,15.86,0,0,0,15.8-15.81V190.83A15.85,15.85,0,0,0,389.73,175ZM206.29,199.69H183.08V249H171.56V199.69H148.09v-9.41h58.2Zm103-61.28a4.19,4.19,0,1,1,8.38,0V175h-8.38Zm-87.16,0a4.19,4.19,0,1,1,8.38,0V175h-8.38ZM376.29,249l-3.11-38.62L355.25,249h-7.59l-17.94-38.62L326.61,249H303.1l-8.41-18.56H271.23L263,249H210.38V190.28h40.86v9.41H221.89v13.7H248v9.42H221.89v16.73h29.35v7.7l27.33-57.78h9.18l27.66,58.76,4.73-57.94h11.24l20.07,44,20.07-44h11.24L387.55,249Z"/><polygon class="cls-1" points="275.65 220.98 290.19 220.98 283.12 203.48 275.65 220.98"/><rect class="cls-1" x="140.31" y="185.19" width="252.54" height="71.09"/><circle class="cls-2" cx="217.85" cy="220.44" r="16.75"/><circle class="cls-2" cx="269.75" cy="220.44" r="16.75"/><circle class="cls-2" cx="320.66" cy="220.44" r="16.75"/></g></g></svg>