<svg xmlns="http://www.w3.org/2000/svg" viewBox="0 0 939.84 282.89"><defs><style>.cls-1{fill:#fff;}.cls-2{fill:#215de4;}.cls-3{fill:#005ced;}</style></defs><title>Asset 1</title><g id="Layer_2" data-name="Layer 2"><g id="Layer_1-2" data-name="Layer 1"><path class="cls-1" d="M471.58,150.42H458a54.62,54.62,0,0,1-3.06-13.86c-.81-6.66-3.33-10.71-8.37-11.07-1.71-.09-3.24-.09-4.86-.09h-7.2v25H422.08V88.32h22.68a70,70,0,0,1,9,.45c9,1.08,16.29,5.76,16.29,16.47,0,8-4.77,13.05-12.15,15.12,6.12,2.34,8.46,7.47,9.18,14.4C467.89,142.32,469.06,146.91,471.58,150.42Zm-28.53-34.29c2.16,0,3.69,0,5-.09,5-.45,8.91-2.88,8.91-8.91s-3.33-8.19-8.19-8.82a40.6,40.6,0,0,0-5.22-.27H434.5v18.09Z"/><path class="cls-1" d="M505.51,143.4l-2.34,5.13c-3.33,2.25-7.38,3.15-11.88,3.15-8.28,0-15.39-4.86-15.39-14,0-10.53,9-16.47,26.37-16.47h3.06v-1a39.15,39.15,0,0,0-.18-4.5c-.36-3.33-2.52-5.76-7.38-5.76s-7.65,2.88-8,8.1l-12.06.09c.36-10.8,9.09-16.92,20.52-16.92,13.41,0,18.45,5.85,19.17,14.13.18,2.25.27,4.77.27,7.38v15.48a82.75,82.75,0,0,0,.9,12.15H506.41Zm-.18-10.62v-3.87c-9.9-.72-16.56,1.53-16.56,7.83,0,4.23,2.88,6.21,7.29,6.21C501.1,143,505.33,139.44,505.33,132.78Z"/><path class="cls-1" d="M575.71,150.42H563.29V143l-3.6,5.31c-2.7,2.07-7.56,3.33-12.42,3.33-13.41,0-21.33-10.17-21.33-24.3,0-17.37,10.62-26.1,22.95-26.1,4,0,8.82,1,11.25,2.7l3.15,5V84.27h12.42ZM563.29,127v-2.34c0-10.8-6.21-14.67-12-14.67-7.2,0-12.51,5.49-12.51,16.56,0,9.81,4.68,16.38,12.06,16.38C557.71,143,563.29,138.72,563.29,127Z"/><path class="cls-1" d="M600.28,91.29c0,4-2.79,6.57-6.84,6.57s-6.84-2.61-6.84-6.57,2.79-6.57,6.84-6.57S600.28,87.42,600.28,91.29Zm-13,59.13V102.54h12.42v47.88Z"/><path class="cls-1" d="M638.07,143.4l-2.34,5.13c-3.33,2.25-7.38,3.15-11.88,3.15-8.28,0-15.38-4.86-15.38-14,0-10.53,9-16.47,26.36-16.47h3.06v-1a39.15,39.15,0,0,0-.18-4.5c-.36-3.33-2.52-5.76-7.38-5.76s-7.64,2.88-8,8.1l-12.05.09c.36-10.8,9.08-16.92,20.51-16.92,13.41,0,18.45,5.85,19.17,14.13.18,2.25.27,4.77.27,7.38v15.48a82.75,82.75,0,0,0,.9,12.15H639Zm-.18-10.62v-3.87c-9.9-.72-16.56,1.53-16.56,7.83,0,4.23,2.89,6.21,7.29,6.21C633.66,143,637.89,139.44,637.89,132.78Z"/><path class="cls-1" d="M706.74,123.42v27H694.32V125.13c0-2,0-4.23-.18-6.66-.36-5-3.15-8.46-9.18-8.46s-10.8,5.22-10.8,18.54v21.87H661.75V102.54h12.41v7.74l3.69-5.67c3.42-2.43,6.93-3.33,11.52-3.33,10.17,0,16,5,17,13.41A76.23,76.23,0,0,1,706.74,123.42Z"/><path class="cls-1" d="M732.48,133.23c0,1.62,0,3,.09,4.23.36,4.68,2.07,5.76,9,5.22v8.1a50.21,50.21,0,0,1-8.19.63c-9.27,0-12.6-3.06-13.14-9.81-.18-2.16-.18-4.23-.18-6.93V111.09h-7V102.9h7V91.11h12.42V102.9h9.9v8.19h-9.9Z"/><path class="cls-1" d="M813.21,150.42h-5.58V116.94c0-7.83,0-16.47.18-23.67-2.43,7.2-5.58,15.93-8.46,23.58l-12.6,33.57h-7L767,116.76c-2.79-7.56-5.94-16.29-8.28-23.4.18,7.2.18,15.84.18,23.58v33.48h-5.58V88.32h9.09l21,57.42L804.3,88.32h8.91Z"/><path class="cls-1" d="M864.78,128.28H828.69c.63,14,7.74,19,15.48,19,6.66,0,12.6-4.05,14.31-11.88h5.85c-2.25,11.07-11,16.29-20.52,16.29-11.88,0-21.15-8.28-21.15-25,0-15.3,9.54-25.11,22.05-25.11,13.32,0,20.25,10.62,20.25,23.76A21.65,21.65,0,0,1,864.78,128.28Zm-36.09-4.41h30.6c-.63-12.24-6.75-17.82-14.76-17.82C836.7,106.05,829.5,112,828.69,123.87Z"/><path class="cls-1" d="M913.29,128.28H877.2c.63,14,7.74,19,15.48,19,6.66,0,12.6-4.05,14.31-11.88h5.85c-2.25,11.07-11,16.29-20.52,16.29-11.88,0-21.15-8.28-21.15-25,0-15.3,9.54-25.11,22.05-25.11,13.32,0,20.25,10.62,20.25,23.76A21.65,21.65,0,0,1,913.29,128.28Zm-36.09-4.41h30.6c-.63-12.24-6.75-17.82-14.76-17.82C885.21,106.05,878,112,877.2,123.87Z"/><path class="cls-1" d="M930.75,137.37c0,2,0,3,.09,4.23.36,4.59,2.34,5.76,8.73,5v4.14a31.07,31.07,0,0,1-5.76.45c-5.31,0-8.1-2.34-8.55-7.56-.09-1.62-.09-3.42-.09-6.12v-30h-6.12v-4.32h6.12V92.64h5.58v10.53h9.09v4.32h-9.09Z"/><path class="cls-2" d="M340.64,0H43.15A43.14,43.14,0,0,0,0,43.15V190.36A43.14,43.14,0,0,0,43.15,233.5H214.06l74.93,48s15.41,6.39,17.66-7.89V233.5h34a43.15,43.15,0,0,0,43.15-43.14V43.15A43.15,43.15,0,0,0,340.64,0Z"/><ellipse class="cls-1" cx="199.88" cy="45.01" rx="24.32" ry="25.87"/><ellipse class="cls-1" cx="129.85" cy="44.8" rx="16.88" ry="17.47"/><ellipse class="cls-1" cx="268.6" cy="44.8" rx="16.88" ry="17.47"/><path class="cls-1" d="M101.37,90.54a2.52,2.52,0,1,1,5,0v42.65H141.3V97.84c0-13.18,10.29-24,22.87-24h4.05a15.85,15.85,0,0,0-13.68-8H104.65A16.08,16.08,0,0,0,88.77,82.06v51.13h12.6Z"/><path class="cls-1" d="M293.29,65.87H243.4a15.85,15.85,0,0,0-13.68,8h6.33c12.58,0,22.87,10.79,22.87,24v35.35h33.62V90.54a2.52,2.52,0,1,1,5,0v42.65h11.59V82.06A16.08,16.08,0,0,0,293.29,65.87Z"/><path class="cls-1" d="M296.54,138.17H254.36V97.75a21.26,21.26,0,0,0-21.1-21.29H167a21.25,21.25,0,0,0-21.09,21.29v40.42H101.4a12.66,12.66,0,0,0-12.63,12.62v45.28A12.67,12.67,0,0,0,101.4,208.7H296.54a12.67,12.67,0,0,0,12.63-12.63V150.79A12.66,12.66,0,0,0,296.54,138.17ZM150,157.88H131.43v39.36h-9.2V157.88H103.47v-7.53H150Zm82.29-49a3.35,3.35,0,1,1,6.69,0v29.26h-6.69Zm-69.65,0a3.35,3.35,0,1,1,6.7,0v29.26h-6.7Zm123.2,88.33-2.49-30.86L269,197.24h-6.06L248.6,166.38l-2.49,30.86H227.32l-6.71-14.83H201.86l-6.6,14.83h-42V150.35h32.65v7.53H162.44v10.94h20.89v7.53H162.44v13.37h23.45v6.14l21.84-46.16h7.33l22.1,47,3.78-46.3h9l16,35.19,16-35.19h9l3.83,46.89Z"/><polygon class="cls-1" points="205.39 174.89 217.01 174.89 211.36 160.9 205.39 174.89"/><rect class="cls-1" x="97.26" y="146.29" width="201.79" height="56.8"/><circle class="cls-3" cx="159.21" cy="174.45" r="13.38"/><circle class="cls-3" cx="200.68" cy="174.45" r="13.38"/><circle class="cls-3" cx="241.36" cy="174.45" r="13.38"/></g></g></svg>